<svg xmlns="http://www.w3.org/2000/svg" viewBox="0 0 128 128" width="128" height="128">
  <defs>
    <linearGradient id="bg-gradient-128" x1="0%" y1="0%" x2="100%" y2="100%">
      <stop offset="0%" style="stop-color:#8b5a3c;stop-opacity:1" />
      <stop offset="100%" style="stop-color:#5d3a28;stop-opacity:1" />
    </linearGradient>
    <linearGradient id="robot-gradient-128" x1="0%" y1="0%" x2="0%" y2="100%">
      <stop offset="0%" style="stop-color:#d4a574;stop-opacity:1" />
      <stop offset="100%" style="stop-color:#a67c52;stop-opacity:1" />
    </linearGradient>
    <filter id="shadow-128">
      <feDropShadow dx="0" dy="1" stdDeviation="2" flood-opacity="0.5"/>
    </filter>
  </defs>
  
  <rect width="128" height="128" rx="27.826086956521742" fill="url(#bg-gradient-128)"/>
  
  <g filter="url(#shadow-128)">
    <rect x="39.04" y="34.944" width="49.92" height="49.92" rx="7.552" fill="url(#robot-gradient-128)" stroke="#3d2414" stroke-width="1"/>
    
    <circle cx="54.016" cy="50.048" r="6.272" fill="#1e90ff" opacity="0.9">
      <animate attributeName="opacity" values="0.9;1;0.9" dur="2s" repeatCount="indefinite"/>
    </circle>
    <circle cx="73.984" cy="50.048" r="6.272" fill="#1e90ff" opacity="0.9">
      <animate attributeName="opacity" values="0.9;1;0.9" dur="2s" repeatCount="indefinite"/>
    </circle>
    
    <circle cx="56.064" cy="48" r="2.048" fill="#fff" opacity="0.8"/>
    <circle cx="76.032" cy="48" r="2.048" fill="#fff" opacity="0.8"/>
    
    <line x1="64" y1="34.944" x2="64" y2="24.96" stroke="#a67c52" stroke-width="1.5005861664712778" stroke-linecap="round"/>
    <circle cx="64" cy="23.808" r="2.944" fill="#ff6b6b">
      <animate attributeName="fill" values="#ff6b6b;#ff4757;#ff6b6b" dur="1.5s" repeatCount="indefinite"/>
    </circle>
    
    <rect x="49.024" y="67.456" width="29.952" height="9.984" rx="2.56" fill="#3d2414" opacity="0.6"/>
    <line x1="51.456" y1="70.016" x2="51.456" y2="75.008" stroke="#8b5a3c" stroke-width="0.5"/>
    <line x1="56.448" y1="70.016" x2="56.448" y2="75.008" stroke="#8b5a3c" stroke-width="0.5"/>
    <line x1="61.44" y1="70.016" x2="61.44" y2="75.008" stroke="#8b5a3c" stroke-width="0.5"/>
    <line x1="66.56" y1="70.016" x2="66.56" y2="75.008" stroke="#8b5a3c" stroke-width="0.5"/>
    <line x1="71.552" y1="70.016" x2="71.552" y2="75.008" stroke="#8b5a3c" stroke-width="0.5"/>
    <line x1="76.544" y1="70.016" x2="76.544" y2="75.008" stroke="#8b5a3c" stroke-width="0.5"/>
  </g>
  
  <text x="64" y="97.536" font-family="Arial, sans-serif" font-size="12.032" font-weight="bold" fill="#d4a574" text-anchor="middle">BabyAGI</text>
  <text x="64" y="107.52" font-family="Arial, sans-serif" font-size="6.016" fill="#a67c52" text-anchor="middle">AI Agent</text>
</svg>